<svg id="Group_10045" data-name="Group 10045" xmlns="http://www.w3.org/2000/svg" xmlns:xlink="http://www.w3.org/1999/xlink" width="21.968" height="22" viewBox="0 0 21.968 22">
  <defs>
    <clipPath id="clip-path">
      <rect id="Rectangle_5242" data-name="Rectangle 5242" width="21.968" height="22" fill="#ffaf00"/>
    </clipPath>
  </defs>
  <g id="Group_10043" data-name="Group 10043" clip-path="url(#clip-path)">
    <path id="Path_25576" data-name="Path 25576" d="M5.47,8.558c.5-.476.984-.909,1.432-1.377A2.007,2.007,0,0,0,7.4,4.693,42.725,42.725,0,0,0,4.51.535a1.374,1.374,0,0,0-1.99-.2A6.017,6.017,0,0,0,.194,3.556,6.768,6.768,0,0,0,.877,8.42,28.053,28.053,0,0,0,13.591,21.135a7.747,7.747,0,0,0,3.091.856,5.629,5.629,0,0,0,4.648-2.075,1.647,1.647,0,0,0-.165-2.72c-1.128-.857-2.3-1.664-3.489-2.432a2.214,2.214,0,0,0-2.864.346c-.393.38-.786.763-1.157,1.164a.369.369,0,0,1-.569.063c-.866-.61-1.775-1.163-2.6-1.822A20.079,20.079,0,0,1,5.47,8.558M13.27.641c-.721.125-1.45.215-2.161.384-.8.189-1.082.565-.927,1.081.147.489.557.607,1.336.385a6.445,6.445,0,0,1,8.009,4.536,6.69,6.69,0,0,1-.222,4.08,1.155,1.155,0,0,0,.11.885.755.755,0,0,0,.707.218,1.307,1.307,0,0,0,.618-.668A8.036,8.036,0,0,0,13.27.641m5.122,8.287a5.33,5.33,0,0,0-6.856-5.02c-.579.184-.817.543-.669,1.01.141.445.523.585,1.08.468a4.78,4.78,0,0,1,1.362-.161,3.691,3.691,0,0,1,3.224,5.04c-.18.534-.035.941.394,1.109a.759.759,0,0,0,1.027-.565c.186-.615.3-1.253.438-1.88" transform="translate(0 0)" fill="#ffaf00"/>
    <path id="Path_25577" data-name="Path 25577" d="M5.471,8.558a20.081,20.081,0,0,0,5.016,5.956c.825.659,1.735,1.213,2.6,1.822a.369.369,0,0,0,.569-.063c.372-.4.764-.784,1.157-1.164a2.214,2.214,0,0,1,2.864-.346c1.191.768,2.361,1.575,3.489,2.432a1.647,1.647,0,0,1,.165,2.72,5.629,5.629,0,0,1-4.648,2.075,7.748,7.748,0,0,1-3.091-.856A28.053,28.053,0,0,1,.878,8.42,6.768,6.768,0,0,1,.194,3.556,6.017,6.017,0,0,1,2.52.333a1.374,1.374,0,0,1,1.99.2A42.712,42.712,0,0,1,7.4,4.693,2.007,2.007,0,0,1,6.9,7.181c-.448.468-.934.9-1.432,1.377" transform="translate(0 0)" fill="#ffaf00"/>
    <path id="Path_25578" data-name="Path 25578" d="M101.9,6.24a8.036,8.036,0,0,1,7.471,10.9,1.306,1.306,0,0,1-.618.668.754.754,0,0,1-.707-.218,1.155,1.155,0,0,1-.11-.885,6.69,6.69,0,0,0,.222-4.08,6.446,6.446,0,0,0-8.009-4.536c-.779.222-1.189.1-1.336-.384-.155-.516.131-.892.927-1.081.711-.168,1.44-.259,2.161-.384" transform="translate(-88.628 -5.599)" fill="#ffaf00"/>
    <path id="Path_25579" data-name="Path 25579" d="M112.975,40.958c-.143.628-.252,1.266-.438,1.88a.759.759,0,0,1-1.027.565c-.43-.168-.574-.575-.395-1.109a3.691,3.691,0,0,0-3.224-5.04,4.78,4.78,0,0,0-1.362.161c-.557.118-.939-.023-1.08-.468-.148-.467.09-.826.669-1.01a5.33,5.33,0,0,1,6.856,5.02" transform="translate(-94.583 -32.029)" fill="#ffaf00"/>
  </g>
</svg>
